<svg version="1" xmlns="http://www.w3.org/2000/svg" width="346.667" height="346.667" viewBox="0 0 260.000000 260.000000"><path d="M158.8 130.5c-.2.1-3.3.5-7 .8-11.1.9-22.8 7.7-29 16.7-1.7 2.4-1.7 2.3-1.7-6.6l-.1-9.1h-11.5l-11.5.1-.1 2.5c0 1.5-.1 24.1-.2 50.4l-.2 47.8 13-.3 12.9-.3.1-30c.1-33 0-32.4 6.7-40.1 10-11.4 24.2-12 30-1.2 2.3 4.2 2.3 5 2.6 38l.3 33.8h25.6l.1-29.8c0-28.5.1-30.1 2.1-34.1 4.8-9.3 14.7-16.4 22.1-15.6 1.4.1 3.3.3 4.2.4.9 0 3 1.3 4.7 2.7 5.7 4.7 6.4 9.7 6.4 45.1V233H254l-.1-35.3c-.1-38-.5-42.9-4.3-51.2-4.8-10.6-12.9-15.6-25.1-15.6-8.1.1-11 .5-16.8 2.8-6.3 2.5-12 6.6-16.8 12.4l-4.3 5.2-.9-2.9c-1.6-4.8-5.6-9.9-11.2-14.2-1.6-1.3-14.9-4.4-15.7-3.7zM45 131.6C24.8 135.2 9.3 150 4.5 170.2c-7.5 32 13.9 62.2 45.8 64.4 14.7 1.1 29-3.9 38.3-13.2 5.1-5.1 8.9-11 7.6-11.8-.4-.2-4-1.3-8.1-2.5-7.1-2.2-7.5-2.2-8.4-.4-3.8 6.9-16 13.5-24.9 13.5-10-.1-16.9-3-23.6-9.9-7.4-7.8-11-17.4-10.7-28.8.5-20.7 14.4-35.6 33-35.6 8.8 0 14.9 2.5 21.2 8.8l5.5 5.5 7.8-2.3c8.9-2.5 8.9-2.5 3-10.1-4.1-5.3-13.4-11.8-20.5-14.2-4.9-1.7-20.5-2.9-25.5-2z"/></svg>